<?xml version="1.0" encoding="UTF-8" standalone="no"?>
<svg
   xmlns:dc="http://purl.org/dc/elements/1.1/"
   xmlns:cc="http://creativecommons.org/ns#"
   xmlns:rdf="http://www.w3.org/1999/02/22-rdf-syntax-ns#"
   xmlns:svg="http://www.w3.org/2000/svg"
   xmlns="http://www.w3.org/2000/svg"
   xmlns:xlink="http://www.w3.org/1999/xlink"
   version="1.0"
   id="svg7854"
   height="30.007812"
   width="48.007812">
  <defs
     id="defs7856">
    <linearGradient
       id="linearGradient7577">
      <stop
         id="stop7579"
         offset="0"
         style="stop-color:#000000;stop-opacity:0.3137255;" />
      <stop
         id="stop7581"
         offset="1"
         style="stop-color:#ffffff;stop-opacity:1" />
    </linearGradient>
    <linearGradient
       id="linearGradient7305">
      <stop
         id="stop7307"
         offset="0"
         style="stop-color:#ffffff;stop-opacity:1" />
      <stop
         style="stop-color:#ffffff;stop-opacity:0;"
         offset="0.20971029"
         id="stop7313" />
      <stop
         id="stop7329"
         offset="0.34936365"
         style="stop-color:#ffffff;stop-opacity:0.81065089;" />
      <stop
         style="stop-color:#ffffff;stop-opacity:0;"
         offset="0.42850056"
         id="stop7321" />
      <stop
         id="stop7323"
         offset="0.52134049"
         style="stop-color:#ffffff;stop-opacity:1;" />
      <stop
         style="stop-color:#ffffff;stop-opacity:0;"
         offset="0.55746967"
         id="stop7317" />
      <stop
         id="stop7319"
         offset="0.71001518"
         style="stop-color:#ffffff;stop-opacity:0.56804734;" />
      <stop
         style="stop-color:#ffffff;stop-opacity:0;"
         offset="0.74394959"
         id="stop7416" />
      <stop
         id="stop7309"
         offset="1"
         style="stop-color:#ffffff;stop-opacity:0" />
    </linearGradient>
    <linearGradient
       id="linearGradient7344">
      <stop
         style="stop-color:#eeeeec;stop-opacity:1"
         offset="0"
         id="stop7346" />
      <stop
         style="stop-color:#92948f;stop-opacity:1"
         offset="1"
         id="stop7348" />
    </linearGradient>
    <linearGradient
       y2="26.023027"
       x2="-74.288277"
       y1="13.246527"
       x1="-77.711723"
       gradientTransform="matrix(-1,0,0,1,-152,0)"
       gradientUnits="userSpaceOnUse"
       id="linearGradient8208"
       xlink:href="#linearGradient7577" />
    <radialGradient
       r="12.000001"
       fy="31.678772"
       fx="28.541149"
       cy="31.678772"
       cx="28.541149"
       gradientTransform="matrix(2.2246612,0,0,2.605516,-356.62956,-51.421571)"
       gradientUnits="userSpaceOnUse"
       id="radialGradient8210"
       xlink:href="#linearGradient7344" />
    <radialGradient
       r="13.55237"
       fy="17.833462"
       fx="38.40033"
       cy="17.833462"
       cx="38.40033"
       gradientTransform="matrix(-1.9143326,0,0,1.5917714,100.35131,0.01619344)"
       gradientUnits="userSpaceOnUse"
       id="radialGradient8212"
       xlink:href="#linearGradient7344" />
    <radialGradient
       r="13.55237"
       fy="17.597876"
       fx="38.204437"
       cy="17.597876"
       cx="38.204437"
       gradientTransform="matrix(-1.9143326,0,0,1.5917714,100.35131,0.01619344)"
       gradientUnits="userSpaceOnUse"
       id="radialGradient8214"
       xlink:href="#linearGradient7344" />
    <linearGradient
       y2="38.101673"
       x2="98.316566"
       y1="10.023315"
       x1="49.683426"
       gradientUnits="userSpaceOnUse"
       id="linearGradient8216"
       xlink:href="#linearGradient7305" />
  </defs>
  <metadata
     id="metadata7859">
    <rdf:RDF>
      <cc:Work
         rdf:about="">
        <dc:format>image/svg+xml</dc:format>
        <dc:type
           rdf:resource="http://purl.org/dc/dcmitype/StillImage" />
        <dc:creator>
          <cc:Agent>
            <dc:title>Lapo Calamandrei</dc:title>
          </cc:Agent>
        </dc:creator>
        <dc:source />
        <cc:license
           rdf:resource="http://creativecommons.org/licenses/GPL/2.0/" />
        <dc:title></dc:title>
        <dc:subject>
          <rdf:Bag>
            <rdf:li>skip</rdf:li>
            <rdf:li>backward</rdf:li>
            <rdf:li>previous</rdf:li>
            <rdf:li>media</rdf:li>
          </rdf:Bag>
        </dc:subject>
      </cc:Work>
      <cc:License
         rdf:about="http://creativecommons.org/licenses/GPL/2.0/">
        <cc:permits
           rdf:resource="http://web.resource.org/cc/Reproduction" />
        <cc:permits
           rdf:resource="http://web.resource.org/cc/Distribution" />
        <cc:requires
           rdf:resource="http://web.resource.org/cc/Notice" />
        <cc:permits
           rdf:resource="http://web.resource.org/cc/DerivativeWorks" />
        <cc:requires
           rdf:resource="http://web.resource.org/cc/ShareAlike" />
        <cc:requires
           rdf:resource="http://web.resource.org/cc/SourceCode" />
      </cc:License>
    </rdf:RDF>
  </metadata>
  <g
     transform="translate(0.003906,-8.996094)"
     id="layer1">
    <g
       transform="translate(300,0)"
       id="g7157">
      <path
         style="opacity:0.4;fill:url(#linearGradient8208);fill-opacity:1;fill-rule:evenodd;stroke:none;stroke-width:1;stroke-linecap:round;stroke-linejoin:round;stroke-miterlimit:4;stroke-dasharray:none;stroke-dashoffset:0.69999993;stroke-opacity:1"
         id="path7687"
         d="m -59.9375,10.996094 c -1.145827,0 -2.066406,0.920579 -2.066406,2.066406 l 0,7.982422 -15.728516,-9.337891 A 1.503402,1.503402 0 0 0 -80.003906,13 l 0,8.044922 -15.728516,-9.337891 A 1.503402,1.503402 0 0 0 -98.003906,13 l 0,22 a 1.503402,1.503402 0 0 0 2.271484,1.292969 l 15.728516,-9.337891 0,8.044922 a 1.503402,1.503402 0 0 0 2.271484,1.292969 l 15.728516,-9.337891 0,7.982422 c 0,1.145833 0.920564,2.066414 2.066406,2.066406 l 3.875,0 c 1.145827,0 2.06641,-0.920573 2.066406,-2.066406 l 0,-21.875 c 0,-1.14583 -0.920578,-2.066406 -2.066406,-2.066406 l -3.875,0 z"
         transform="matrix(-1,0,0,1,-352,0)" />
      <g
         id="g7553">
        <rect
           ry="0.55242717"
           rx="0.55242717"
           y="12.5"
           x="-296.48865"
           height="23.000002"
           width="4.9886603"
           id="rect7736"
           style="fill:url(#radialGradient8210);fill-opacity:1;fill-rule:evenodd;stroke:#555753;stroke-width:1;stroke-linecap:round;stroke-linejoin:round;stroke-miterlimit:4;stroke-dasharray:none;stroke-dashoffset:0.69999993;stroke-opacity:1" />
        <g
           transform="matrix(-1,0,0,1,-234,0)"
           id="g7944">
          <path
             style="fill:url(#radialGradient8212);fill-opacity:1;fill-rule:evenodd;stroke:#555753;stroke-width:0.99999994;stroke-linecap:square;stroke-linejoin:miter;stroke-miterlimit:4;stroke-dashoffset:0.69999993;stroke-opacity:1"
             d="M 21.5,35 21.5,13.000461 39.995767,24.010194 21.5,35 Z"
             id="path7946" />
          <path
             style="fill:none;fill-opacity:1;fill-rule:evenodd;stroke:#ffffff;stroke-width:0.99999994;stroke-linecap:square;stroke-linejoin:miter;stroke-miterlimit:4;stroke-dashoffset:0.69999993;stroke-opacity:1"
             id="path7948"
             d="m 22.505859,14.767578 0,18.464844 L 38.035156,24 22.505859,14.767578 Z" />
        </g>
        <g
           transform="matrix(-1,0,0,1,-252,0)"
           id="g7744">
          <path
             style="fill:url(#radialGradient8214);fill-opacity:1;fill-rule:evenodd;stroke:#555753;stroke-width:0.99999994;stroke-linecap:square;stroke-linejoin:miter;stroke-miterlimit:4;stroke-dashoffset:0.69999993;stroke-opacity:1"
             d="M 21.5,35 21.5,13.000461 39.995767,24.010194 21.5,35 Z"
             id="path7746" />
          <path
             style="fill:none;fill-opacity:1;fill-rule:evenodd;stroke:#ffffff;stroke-width:0.99999994;stroke-linecap:square;stroke-linejoin:miter;stroke-miterlimit:4;stroke-dashoffset:0.69999993;stroke-opacity:1"
             id="path7748"
             d="m 22.505859,14.767578 0,18.464844 L 38.035156,24 22.505859,14.767578 Z" />
        </g>
        <rect
           ry="0"
           rx="0"
           y="13.5"
           x="-295.48395"
           height="21.000002"
           width="3.0097761"
           id="rect7750"
           style="fill:none;fill-opacity:1;fill-rule:evenodd;stroke:#ffffff;stroke-width:1;stroke-linecap:round;stroke-linejoin:miter;stroke-miterlimit:4;stroke-dasharray:none;stroke-dashoffset:0.69999993;stroke-opacity:1" />
        <path
           transform="matrix(1,0,0,-1,-350,48)"
           d="m 54.0625,12.994141 c -0.02984,0 -0.06836,0.03852 -0.06836,0.06836 l 0,21.875 c 0,0.02984 0.03853,0.06836 0.06836,0.06836 l 3.875,0 c 0.02984,0 0.06836,-0.03852 0.06836,-0.06836 l 0,-10.625 A 0.49447021,0.49447021 0 0 1 58.117188,24 0.49447021,0.49447021 0 0 1 58.005859,23.6875 l 0,-10.625 c 0,-0.02984 -0.03852,-0.06836 -0.06836,-0.06836 l -3.875,0 z m 21.943359,0.875 L 58.943359,24 l 17.0625,10.130859 0,-9.818359 A 0.49447021,0.49447021 0 0 1 76.117188,24 0.49447021,0.49447021 0 0 1 76.005859,23.6875 l 0,-9.818359 z m 18,0 L 76.943359,24 l 17.0625,10.130859 0,-20.261718 z"
           id="path6332"
           style="opacity:0.15;fill:url(#linearGradient8216);fill-opacity:1;fill-rule:evenodd;stroke:none;stroke-width:1;stroke-linecap:round;stroke-linejoin:round;stroke-miterlimit:4;stroke-dasharray:none;stroke-dashoffset:0.69999993;stroke-opacity:1" />
      </g>
    </g>
  </g>
</svg>
