<?xml version="1.0" encoding="UTF-8" standalone="no"?>
<svg
   xmlns:dc="http://purl.org/dc/elements/1.1/"
   xmlns:cc="http://creativecommons.org/ns#"
   xmlns:rdf="http://www.w3.org/1999/02/22-rdf-syntax-ns#"
   xmlns:svg="http://www.w3.org/2000/svg"
   xmlns="http://www.w3.org/2000/svg"
   xmlns:xlink="http://www.w3.org/1999/xlink"
   version="1.0"
   id="svg7854"
   height="30.007812"
   width="48.007812">
  <defs
     id="defs7856">
    <linearGradient
       id="linearGradient7577">
      <stop
         id="stop7579"
         offset="0"
         style="stop-color:#000000;stop-opacity:0.3137255;" />
      <stop
         id="stop7581"
         offset="1"
         style="stop-color:#ffffff;stop-opacity:1" />
    </linearGradient>
    <linearGradient
       id="linearGradient7305">
      <stop
         id="stop7307"
         offset="0"
         style="stop-color:#ffffff;stop-opacity:1" />
      <stop
         style="stop-color:#ffffff;stop-opacity:0;"
         offset="0.20971029"
         id="stop7313" />
      <stop
         id="stop7329"
         offset="0.34936365"
         style="stop-color:#ffffff;stop-opacity:0.81065089;" />
      <stop
         style="stop-color:#ffffff;stop-opacity:0;"
         offset="0.42850056"
         id="stop7321" />
      <stop
         id="stop7323"
         offset="0.52134049"
         style="stop-color:#ffffff;stop-opacity:1;" />
      <stop
         style="stop-color:#ffffff;stop-opacity:0;"
         offset="0.55746967"
         id="stop7317" />
      <stop
         id="stop7319"
         offset="0.71001518"
         style="stop-color:#ffffff;stop-opacity:0.56804734;" />
      <stop
         style="stop-color:#ffffff;stop-opacity:0;"
         offset="0.74394959"
         id="stop7416" />
      <stop
         id="stop7309"
         offset="1"
         style="stop-color:#ffffff;stop-opacity:0" />
    </linearGradient>
    <linearGradient
       id="linearGradient7344">
      <stop
         style="stop-color:#eeeeec;stop-opacity:1"
         offset="0"
         id="stop7346" />
      <stop
         style="stop-color:#92948f;stop-opacity:1"
         offset="1"
         id="stop7348" />
    </linearGradient>
    <linearGradient
       y2="26.023027"
       x2="-74.288277"
       y1="13.246527"
       x1="-77.711723"
       gradientUnits="userSpaceOnUse"
       id="linearGradient7762"
       xlink:href="#linearGradient7577" />
    <radialGradient
       r="12.000001"
       fy="31.678772"
       fx="28.541149"
       cy="31.678772"
       cx="28.541149"
       gradientTransform="matrix(2.2246612,0,0,2.3034327,-120.62956,-41.851943)"
       gradientUnits="userSpaceOnUse"
       id="radialGradient7764"
       xlink:href="#linearGradient7344" />
    <radialGradient
       r="13.55237"
       fy="17.414564"
       fx="36.455379"
       cy="17.414564"
       cx="36.455379"
       gradientTransform="matrix(1.8811669,0,0,1.5641941,82.169231,0.3959845)"
       gradientUnits="userSpaceOnUse"
       id="radialGradient7766"
       xlink:href="#linearGradient7344" />
    <radialGradient
       r="13.55237"
       fy="17.414564"
       fx="36.455379"
       cy="17.414564"
       cx="36.455379"
       gradientTransform="matrix(1.8811669,0,0,1.5641941,82.169231,0.3959845)"
       gradientUnits="userSpaceOnUse"
       id="radialGradient7768"
       xlink:href="#linearGradient7344" />
    <linearGradient
       y2="37.918854"
       x2="47.954166"
       y1="10.331141"
       x1="0.17084506"
       gradientUnits="userSpaceOnUse"
       id="linearGradient7770"
       xlink:href="#linearGradient7305" />
  </defs>
  <metadata
     id="metadata7859">
    <rdf:RDF>
      <cc:Work
         rdf:about="">
        <dc:format>image/svg+xml</dc:format>
        <dc:type
           rdf:resource="http://purl.org/dc/dcmitype/StillImage" />
        <dc:creator>
          <cc:Agent>
            <dc:title>Lapo Calamandrei</dc:title>
          </cc:Agent>
        </dc:creator>
        <dc:source />
        <cc:license
           rdf:resource="http://creativecommons.org/licenses/GPL/2.0/" />
        <dc:title></dc:title>
        <dc:subject>
          <rdf:Bag>
            <rdf:li>skip</rdf:li>
            <rdf:li>forward</rdf:li>
            <rdf:li>next</rdf:li>
          </rdf:Bag>
        </dc:subject>
      </cc:Work>
      <cc:License
         rdf:about="http://creativecommons.org/licenses/GPL/2.0/">
        <cc:permits
           rdf:resource="http://web.resource.org/cc/Reproduction" />
        <cc:permits
           rdf:resource="http://web.resource.org/cc/Distribution" />
        <cc:requires
           rdf:resource="http://web.resource.org/cc/Notice" />
        <cc:permits
           rdf:resource="http://web.resource.org/cc/DerivativeWorks" />
        <cc:requires
           rdf:resource="http://web.resource.org/cc/ShareAlike" />
        <cc:requires
           rdf:resource="http://web.resource.org/cc/SourceCode" />
      </cc:License>
    </rdf:RDF>
  </metadata>
  <g
     transform="translate(0.00390611,-8.996094)"
     id="layer1">
    <g
       transform="translate(100,0)"
       id="g7113">
      <path
         style="opacity:0.4;fill:url(#linearGradient7762);fill-opacity:1;fill-rule:evenodd;stroke:none;stroke-width:1;stroke-linecap:round;stroke-linejoin:round;stroke-miterlimit:4;stroke-dasharray:none;stroke-dashoffset:0.69999993;stroke-opacity:1"
         id="path7638"
         d="m -59.9375,10.996094 c -1.145827,0 -2.066406,0.920579 -2.066406,2.066406 l 0,7.982422 -15.728516,-9.337891 A 1.503402,1.503402 0 0 0 -80.003906,13 l 0,8.044922 -15.728516,-9.337891 A 1.503402,1.503402 0 0 0 -98.003906,13 l 0,22 a 1.503402,1.503402 0 0 0 2.271484,1.292969 l 15.728516,-9.337891 0,8.044922 a 1.503402,1.503402 0 0 0 2.271484,1.292969 l 15.728516,-9.337891 0,7.982422 c 0,1.145833 0.920564,2.066414 2.066406,2.066406 l 3.875,0 c 1.145827,0 2.06641,-0.920573 2.066406,-2.066406 l 0,-21.875 c 0,-1.14583 -0.920578,-2.066406 -2.066406,-2.066406 l -3.875,0 z" />
      <g
         id="g7474">
        <rect
           ry="0.55242717"
           rx="0.55242717"
           y="12.5"
           x="-60.488663"
           height="23.000002"
           width="4.9886603"
           id="rect7623"
           style="fill:url(#radialGradient7764);fill-opacity:1;fill-rule:evenodd;stroke:#555753;stroke-width:1;stroke-linecap:round;stroke-linejoin:round;stroke-miterlimit:4;stroke-dasharray:none;stroke-dashoffset:0.69999993;stroke-opacity:1" />
        <g
           transform="translate(-238,0)"
           id="g8003">
          <path
             style="fill:url(#radialGradient7766);fill-opacity:1;fill-rule:evenodd;stroke:#555753;stroke-width:0.99999994;stroke-linecap:square;stroke-linejoin:miter;stroke-miterlimit:4;stroke-dashoffset:0.69999993;stroke-opacity:1"
             d="m 141.5,35 0,-21.999539 18.49577,11.009733 L 141.5,35 Z"
             id="path8005" />
          <path
             style="fill:none;fill-opacity:1;fill-rule:evenodd;stroke:#ffffff;stroke-width:0.99999994;stroke-linecap:square;stroke-linejoin:miter;stroke-miterlimit:4;stroke-dashoffset:0.69999993;stroke-opacity:1"
             id="path8007"
             d="m 22.505859,14.767578 0,18.464844 L 38.035156,24 22.505859,14.767578 Z"
             transform="translate(120,0)" />
        </g>
        <g
           transform="translate(-220,0)"
           id="g7999">
          <path
             style="fill:url(#radialGradient7768);fill-opacity:1;fill-rule:evenodd;stroke:#555753;stroke-width:0.99999994;stroke-linecap:square;stroke-linejoin:miter;stroke-miterlimit:4;stroke-dashoffset:0.69999993;stroke-opacity:1"
             d="m 141.5,35 0,-21.999539 18.49577,11.009733 L 141.5,35 Z"
             id="path7621" />
          <path
             style="fill:none;fill-opacity:1;fill-rule:evenodd;stroke:#ffffff;stroke-width:0.99999994;stroke-linecap:square;stroke-linejoin:miter;stroke-miterlimit:4;stroke-dashoffset:0.69999993;stroke-opacity:1"
             id="path7627"
             d="m 22.505859,14.767578 0,18.464844 L 38.035156,24 22.505859,14.767578 Z"
             transform="translate(120,0)" />
        </g>
        <rect
           ry="0"
           rx="0"
           y="13.5"
           x="-59.483948"
           height="21.000002"
           width="3.0097761"
           id="rect7625"
           style="fill:none;fill-opacity:1;fill-rule:evenodd;stroke:#ffffff;stroke-width:1;stroke-linecap:round;stroke-linejoin:miter;stroke-miterlimit:4;stroke-dasharray:none;stroke-dashoffset:0.69999993;stroke-opacity:1" />
        <path
           transform="matrix(1,0,0,-1,-100,48)"
           d="M 40.0625,13 C 40.035777,13 40,13.035777 40,13.0625 l 0,10.625 A 0.50005,0.50005 0 0 1 39.890625,24 0.50005,0.50005 0 0 1 40,24.3125 l 0,10.625 C 40,34.964221 40.035784,35 40.0625,35 l 3.875,0 C 43.964223,35 44,34.964221 44,34.9375 l 0,-21.875 C 44,13.035778 43.964221,13 43.9375,13 l -3.875,0 z M 4,13.878906 4,34.121094 21.046875,24 4,13.878906 Z m 18,0 0,9.808594 A 0.50005,0.50005 0 0 1 21.890625,24 0.50005,0.50005 0 0 1 22,24.3125 L 22,34.121094 39.046875,24 22,13.878906 Z"
           id="path7386"
           style="opacity:0.15;fill:url(#linearGradient7770);fill-opacity:1;fill-rule:evenodd;stroke:none;stroke-width:1;stroke-linecap:round;stroke-linejoin:round;stroke-miterlimit:4;stroke-dasharray:none;stroke-dashoffset:0.69999993;stroke-opacity:1" />
      </g>
    </g>
  </g>
</svg>
