<?xml version="1.0" encoding="UTF-8" standalone="no"?>
<svg
   xmlns:dc="http://purl.org/dc/elements/1.1/"
   xmlns:cc="http://creativecommons.org/ns#"
   xmlns:rdf="http://www.w3.org/1999/02/22-rdf-syntax-ns#"
   xmlns:svg="http://www.w3.org/2000/svg"
   xmlns="http://www.w3.org/2000/svg"
   xmlns:xlink="http://www.w3.org/1999/xlink"
   id="svg2"
   viewBox="0 0 4735.9997 4735.9997"
   style="clip-rule:evenodd;fill-rule:evenodd;image-rendering:optimizeQuality;shape-rendering:geometricPrecision;text-rendering:geometricPrecision"
   version="1.1"
   height="47.359997mm"
   width="47.359997mm"
   xml:space="preserve"><metadata
     id="metadata39"><rdf:RDF><cc:Work
         rdf:about=""><dc:format>image/svg+xml</dc:format><dc:type
           rdf:resource="http://purl.org/dc/dcmitype/StillImage" /><dc:title></dc:title></cc:Work></rdf:RDF></metadata><defs
     id="defs4"><style
       id="style6"
       type="text/css"><![CDATA[
    .fil3 {fill:#242424}
    .fil1 {fill:#883061}
    .fil2 {fill:#E5F4FF}
    .fil4 {fill:url(#id0)}
    .fil0 {fill:url(#id1)}
    .fil5 {fill:url(#id2)}
   ]]></style><linearGradient
       y2="8625.3398"
       x2="1856"
       y1="9412.3398"
       x1="7364.96"
       gradientUnits="userSpaceOnUse"
       id="id0"><stop
         id="stop9"
         style="stop-opacity:1; stop-color:#883061"
         offset="0" /><stop
         id="stop11"
         style="stop-opacity:1; stop-color:#F0AAD1"
         offset="1" /></linearGradient><linearGradient
       y2="9018.8398"
       x2="18954.6"
       y1="9018.8398"
       x1="2021.26"
       gradientUnits="userSpaceOnUse"
       id="id1"><stop
         id="stop14"
         style="stop-opacity:1; stop-color:#5EF7F7"
         offset="0" /><stop
         id="stop16"
         style="stop-opacity:1; stop-color:#FEFEFE"
         offset="1" /></linearGradient><linearGradient
       y2="8626.3799"
       x2="13782.2"
       y1="9413.3799"
       x1="19117.6"
       xlink:href="#id0"
       gradientUnits="userSpaceOnUse"
       id="id2" /></defs><circle
     class="fil1"
     cx="2368"
     cy="2368"
     r="2168"
     id="circle23"
     style="fill:#883061" /><circle
     class="fil2"
     cx="2378"
     cy="2378"
     r="1723"
     id="circle25"
     style="fill:#e5f4ff" /><path
     class="fil1"
     d="m 2251,2956 -1,-1738 c 29,-95 136,-45 176,-65 47,-18 -12,-78 -59,-122 -40,-34.99999 -89,-56.99999 -151,-34.99999 C 2153,1019 2113,1070 2081,1163 l 1,1417 c -85,-65 -179,-112 -292,-108 -226,-13 -466,217 -460,478 2,285 219,473 460,479 330,-9 454,-282 461,-473 z"
     id="path27"
     style="fill:#883061" /><path
     class="fil3"
     d="m 2670,2410 c -4,-172 -27,-345 -31,-517 453,72 473,326 376,616 -209,-3 -270,445 104,443 42,70 60,460 -480,477 l -3,-218 -23,-748 c 31,-4 48,-26 57,-53 z"
     id="path29"
     style="fill:#242424" /><path
     class="fil3"
     d="m 2543,1493 0,1933 -169,0 0,-1956 c 4,-43 28,-88 58,-123 20,-24 72,-62 125,-74 43,-7 74,9 88,31 21,34 33,85 -18,102 -61,24 -85,64 -84,87 z"
     id="path31"
     style="fill:#242424" /></svg>